<?xml version="1.0" standalone="no"?>
<!DOCTYPE svg PUBLIC "-//W3C//DTD SVG 20010904//EN"
 "http://www.w3.org/TR/2001/REC-SVG-20010904/DTD/svg10.dtd">
<svg version="1.0" xmlns="http://www.w3.org/2000/svg"
 width="2233.000000pt" height="596.000000pt" viewBox="0 0 2233.000000 596.000000"
 preserveAspectRatio="xMidYMid meet">
<metadata>
Created by potrace 1.14, written by Peter Selinger 2001-2017
</metadata>
<g transform="translate(0.000000,596.000000) scale(0.100000,-0.100000)"
fill="#000000" stroke="none">
<path d="M19215 5940 c-109 -35 -184 -102 -232 -207 -23 -49 -27 -71 -27 -143
1 -119 28 -186 108 -266 82 -82 147 -108 271 -108 124 0 189 26 271 108 79 79
107 147 107 261 0 163 -94 298 -244 352 -70 25 -184 26 -254 3z m251 -88 c49
-25 95 -74 125 -132 20 -37 24 -60 24 -135 0 -81 -3 -95 -30 -143 -49 -90
-129 -142 -230 -149 -116 -9 -221 51 -274 159 -55 110 -39 242 41 333 22 25
59 55 81 66 79 41 186 41 263 1z"/>
<path d="M19238 5773 l-48 -4 0 -190 0 -189 45 0 45 0 0 75 0 75 38 0 c48 0
65 -18 86 -92 l17 -58 50 0 c44 0 49 2 41 18 -5 9 -15 40 -22 69 -7 31 -23 63
-38 79 -21 21 -24 28 -13 32 28 9 61 51 61 76 0 38 -21 76 -51 92 -30 15 -137
24 -211 17z"/>
<path d="M20710 5270 l0 -690 -690 0 -690 0 0 -120 0 -120 690 0 690 0 1 -682
c1 -376 1 -686 0 -690 0 -5 55 -8 124 -8 l125 0 0 690 0 690 685 0 685 0 0
120 0 120 -685 0 -685 0 0 690 0 690 -125 0 -125 0 0 -690z"/>
<path d="M21180 5385 l0 -575 575 0 575 0 0 575 0 575 -575 0 -575 0 0 -575z"/>
<path d="M6309 5259 c-244 -35 -448 -135 -593 -290 -160 -169 -253 -379 -292
-656 -24 -171 -15 -455 19 -614 102 -482 413 -778 878 -839 235 -30 502 9 693
101 33 16 64 29 69 29 8 0 234 -181 303 -242 21 -19 21 -18 91 69 38 48 72 93
76 99 4 7 -46 56 -128 124 -74 63 -135 115 -135 116 0 2 21 31 48 66 98 130
180 324 219 515 26 128 26 520 0 648 -35 171 -100 335 -184 462 -46 70 -170
198 -235 241 -69 47 -193 107 -273 131 -146 46 -397 64 -556 40z m341 -273
c281 -51 483 -250 564 -555 69 -258 57 -610 -28 -836 -26 -68 -85 -174 -124
-224 l-20 -24 -138 113 c-77 62 -146 120 -155 127 -16 14 -38 -10 -160 -173
-5 -6 39 -50 118 -114 l126 -105 -51 -22 c-172 -75 -446 -66 -622 21 -182 89
-303 239 -373 461 -42 135 -52 216 -51 415 0 152 4 204 23 290 39 183 113 330
222 439 135 135 294 197 509 199 47 1 119 -5 160 -12z"/>
<path d="M4760 4802 l0 -407 -70 67 c-124 120 -265 172 -465 172 -136 1 -196
-11 -303 -60 -226 -103 -371 -322 -417 -633 -53 -349 34 -691 226 -882 255
-257 689 -264 954 -17 l74 69 3 -98 3 -98 135 0 135 0 3 1148 2 1147 -140 0
-140 0 0 -408z m-305 -443 c144 -44 240 -156 292 -339 14 -53 18 -101 18 -260
0 -175 -2 -203 -24 -277 -79 -279 -310 -421 -579 -358 -180 43 -303 174 -359
385 -27 100 -24 367 5 475 76 282 250 417 512 398 41 -3 102 -14 135 -24z"/>
<path d="M12690 4799 l0 -412 -72 69 c-81 77 -179 133 -278 160 -89 24 -290
25 -380 1 -229 -61 -405 -232 -486 -475 -96 -284 -79 -639 41 -887 117 -242
314 -373 585 -391 200 -13 390 57 525 195 28 28 53 51 58 51 4 0 7 -45 7 -100
l0 -100 135 0 135 0 0 1150 0 1150 -135 0 -135 0 0 -411z m-315 -440 c157 -49
258 -175 301 -374 23 -108 23 -340 0 -450 -38 -176 -136 -318 -260 -376 -190
-89 -409 -54 -550 87 -63 62 -97 124 -132 239 -24 81 -27 106 -27 245 0 176
20 288 74 397 35 74 113 161 172 196 42 25 124 52 182 60 52 8 178 -4 240 -24z"/>
<path d="M673 5140 c-178 -25 -310 -86 -420 -196 -57 -57 -81 -91 -118 -167
-54 -111 -85 -242 -85 -359 l0 -78 144 0 143 0 6 88 c19 281 182 452 432 452
95 0 166 -15 237 -51 78 -39 119 -78 156 -146 80 -151 63 -337 -47 -482 -59
-79 -153 -147 -353 -256 -234 -127 -366 -215 -474 -317 -187 -178 -275 -365
-291 -615 l-6 -103 761 0 762 0 0 140 0 140 -600 0 c-330 0 -600 3 -600 6 0 4
16 40 35 80 73 151 226 273 560 444 234 121 326 182 417 279 137 145 196 310
186 521 -12 245 -133 438 -341 540 -45 22 -117 49 -160 60 -91 23 -256 32
-344 20z"/>
<path d="M18060 4815 l0 -235 -125 0 -125 0 0 -110 0 -110 125 0 124 0 3 -632
3 -633 26 -56 c29 -62 72 -100 140 -124 62 -22 227 -29 324 -13 l80 13 3 120
3 120 -102 -3 c-113 -4 -148 6 -176 47 -17 24 -18 66 -21 594 l-3 567 151 0
150 0 0 110 0 110 -150 0 -150 0 0 235 0 235 -140 0 -140 0 0 -235z"/>
<path d="M10255 4630 c-270 -42 -443 -179 -499 -395 -9 -32 -16 -81 -16 -107
l0 -48 129 0 129 0 7 48 c20 136 101 215 254 248 126 26 298 11 387 -34 90
-46 124 -111 124 -236 0 -149 -23 -161 -381 -201 -264 -29 -353 -50 -469 -106
-172 -85 -260 -232 -260 -434 0 -245 131 -421 356 -480 246 -64 517 7 708 186
35 32 66 59 69 59 2 0 7 -24 9 -54 10 -115 94 -183 241 -192 40 -3 99 1 132 8
l60 13 3 109 3 109 -41 -6 c-22 -3 -56 -1 -75 4 -66 18 -65 13 -65 551 0 266
-5 513 -10 550 -32 221 -153 342 -395 394 -85 19 -318 26 -400 14z m514 -1038
c-4 -166 -4 -168 -37 -234 -80 -162 -273 -257 -501 -246 -100 5 -158 25 -209
72 -58 52 -83 158 -62 260 10 47 20 67 58 106 64 65 122 84 349 115 189 26
313 53 362 80 14 8 30 14 35 15 4 0 6 -75 5 -168z"/>
<path d="M14952 4629 c-211 -27 -396 -143 -466 -292 -29 -61 -56 -169 -56
-224 l0 -33 134 0 133 0 6 56 c11 106 90 195 204 230 72 22 283 26 360 6 75
-20 137 -63 170 -119 25 -43 28 -57 28 -138 -1 -165 -10 -169 -425 -215 -293
-33 -432 -79 -542 -179 -105 -96 -143 -203 -136 -385 6 -152 33 -228 114 -315
100 -109 225 -155 419 -155 215 0 378 67 553 227 l42 40 0 -30 c0 -45 27 -114
58 -147 59 -63 178 -89 310 -66 l72 12 0 108 0 108 -60 -1 c-70 0 -94 16 -110
72 -6 22 -10 232 -10 531 0 533 -3 568 -54 668 -28 55 -115 141 -172 170 -132
67 -372 97 -572 71z m493 -1230 c-18 -54 -63 -121 -109 -161 -86 -76 -241
-128 -384 -128 -143 0 -233 44 -278 136 -23 47 -26 63 -23 136 5 100 27 148
88 195 56 44 109 58 346 92 125 18 233 40 285 58 l85 28 3 -154 c2 -120 -1
-165 -13 -202z"/>
<path d="M2460 4619 c-147 -19 -274 -88 -378 -204 l-52 -59 0 112 0 112 -135
0 -135 0 0 -835 0 -835 140 0 140 0 0 518 c0 563 4 603 57 712 80 164 286 260
500 232 165 -22 238 -96 263 -268 5 -39 10 -312 10 -631 l0 -563 140 0 141 0
-3 673 c-3 662 -4 673 -25 729 -74 195 -237 296 -503 311 -52 3 -124 1 -160
-4z"/>
<path d="M16920 4623 c-176 -20 -329 -106 -433 -243 l-27 -35 0 118 0 117
-135 0 -135 0 2 -832 3 -833 137 -3 137 -3 4 538 c3 443 6 547 19 588 68 226
224 338 473 339 171 1 256 -47 306 -170 l24 -59 5 -615 5 -615 143 -3 143 -3
-4 658 c-2 474 -7 670 -16 702 -31 113 -111 221 -204 275 -104 61 -301 95
-447 79z"/>
<path d="M14040 4613 c-147 -25 -263 -112 -337 -256 l-33 -62 0 143 0 142
-135 0 -135 0 0 -835 0 -835 140 0 139 0 3 543 c3 528 4 544 25 599 65 172
188 256 391 266 l102 5 0 148 0 149 -67 -1 c-38 -1 -79 -4 -93 -6z"/>
<path d="M7942 3918 c3 -609 5 -667 22 -718 51 -152 167 -254 346 -305 81 -23
297 -27 380 -6 136 33 268 120 353 231 l26 35 1 -122 0 -123 130 0 130 0 0
835 0 835 -140 0 -140 0 0 -507 c0 -566 -3 -593 -65 -720 -79 -160 -243 -243
-456 -230 -193 12 -272 90 -299 297 -5 41 -10 319 -10 618 l0 542 -140 0 -141
0 3 -662z"/>
<path d="M13162 2360 c-235 -43 -407 -179 -457 -364 -25 -93 -17 -232 17 -307
72 -158 206 -232 579 -319 309 -73 420 -117 479 -188 80 -98 60 -271 -42 -358
-168 -141 -567 -135 -741 12 -74 62 -137 180 -137 256 l0 28 -115 0 -115 0 0
-48 c0 -165 115 -361 265 -451 71 -43 187 -85 285 -102 118 -21 339 -16 435
10 202 53 365 185 420 340 64 182 24 375 -105 501 -102 101 -197 138 -605 238
-287 70 -365 110 -395 206 -15 46 -8 131 14 174 71 137 307 205 543 156 92
-19 145 -44 196 -93 46 -43 76 -98 92 -166 l11 -50 117 -3 117 -3 0 34 c0 52
-28 145 -63 211 -66 125 -209 228 -377 271 -77 20 -338 29 -418 15z"/>
<path d="M15588 2360 c-132 -23 -275 -86 -378 -169 -234 -188 -349 -497 -319
-858 11 -140 39 -247 94 -358 87 -178 209 -302 378 -385 130 -64 216 -82 387
-82 166 -1 250 17 381 78 l77 36 146 -116 c80 -64 148 -116 150 -116 7 0 136
159 136 168 0 5 -54 51 -120 102 -66 51 -123 97 -126 101 -3 5 13 32 34 61 78
104 127 213 158 346 38 164 36 405 -6 567 -26 102 -106 262 -171 343 -116 145
-303 251 -497 281 -80 12 -253 13 -324 1z m330 -216 c129 -34 266 -137 337
-254 135 -222 150 -592 34 -840 -33 -70 -74 -130 -90 -130 -6 0 -51 33 -102
73 -51 40 -97 76 -104 80 -15 9 -161 -162 -146 -171 39 -26 163 -126 163 -133
0 -4 -30 -18 -67 -31 -91 -31 -288 -33 -373 -4 -125 43 -207 100 -282 197
-217 279 -204 794 26 1047 146 159 380 224 604 166z"/>
<path d="M0 1436 l0 -906 120 0 120 0 0 364 0 364 338 5 c281 3 347 7 397 21
263 77 395 253 395 531 0 162 -42 276 -135 370 -63 62 -130 99 -232 127 -74
21 -103 22 -540 26 l-463 3 0 -905z m808 684 c120 -15 181 -41 235 -99 60 -64
81 -133 75 -242 -9 -146 -77 -235 -216 -280 -61 -20 -92 -23 -364 -27 l-298
-4 0 331 0 331 243 0 c133 0 280 -5 325 -10z"/>
<path d="M17510 1435 l0 -905 560 0 560 0 0 110 0 110 -440 0 -440 0 0 795 0
795 -120 0 -120 0 0 -905z"/>
<path d="M6068 2008 l-3 -163 -77 -3 -78 -3 0 -89 0 -90 79 0 80 0 3 -477 3
-478 26 -56 c46 -97 117 -129 288 -129 158 0 151 -4 151 99 l0 86 -78 -3 c-72
-4 -80 -2 -109 22 -49 41 -53 81 -53 531 l0 405 105 0 105 0 0 90 0 89 -102 3
-103 3 -3 163 -2 162 -115 0 -115 0 -2 -162z"/>
<path d="M2593 1855 c-211 -46 -370 -209 -429 -440 -27 -106 -25 -362 4 -468
61 -224 213 -378 422 -428 78 -19 260 -16 339 4 248 66 399 261 431 557 43
403 -136 708 -455 775 -86 18 -229 18 -312 0z m298 -192 c92 -41 157 -119 200
-239 33 -92 39 -321 10 -434 -27 -106 -65 -175 -127 -225 -128 -105 -341 -99
-458 13 -90 87 -126 187 -133 372 -11 286 80 464 270 526 59 19 180 13 238
-13z"/>
<path d="M4470 1854 c-136 -29 -251 -109 -300 -209 -19 -38 -26 -70 -28 -136
-4 -98 6 -147 44 -205 55 -86 138 -122 483 -214 236 -63 280 -90 289 -178 3
-35 -1 -62 -16 -94 -41 -93 -141 -134 -306 -125 -128 7 -170 21 -227 77 -38
37 -49 55 -60 103 l-12 57 -115 0 -115 0 7 -55 c10 -85 42 -159 96 -218 96
-105 224 -149 440 -150 201 -2 327 41 432 144 73 73 101 136 106 245 6 129
-13 191 -81 258 -68 68 -146 100 -418 171 -292 76 -324 97 -316 198 5 64 30
96 102 132 55 28 68 30 165 30 161 0 243 -44 270 -142 l11 -43 116 0 116 0 -6
52 c-9 72 -59 170 -106 208 -93 73 -229 110 -406 109 -55 0 -129 -7 -165 -15z"/>
<path d="M7641 1854 c-137 -37 -262 -145 -330 -286 -62 -128 -75 -196 -76
-388 0 -196 16 -279 77 -401 148 -297 530 -369 773 -147 l55 50 0 -68 c0 -222
-71 -366 -201 -410 -72 -24 -215 -24 -286 0 -78 26 -143 109 -143 184 0 9 -31
12 -121 12 l-122 0 6 -55 c7 -67 56 -163 108 -210 51 -46 144 -92 226 -112 93
-22 296 -22 380 0 186 49 300 166 355 364 22 76 22 93 26 766 l3 687 -116 0
-115 0 0 -46 c0 -46 0 -46 -22 -30 -46 34 -165 86 -217 96 -75 14 -196 11
-260 -6z m264 -179 c63 -16 130 -53 196 -108 l39 -32 0 -311 0 -311 -39 -49
c-82 -103 -186 -164 -292 -172 -219 -15 -338 155 -339 486 0 281 75 440 237
498 51 18 126 17 198 -1z"/>
<path d="M9758 1856 c-67 -24 -126 -65 -182 -128 l-56 -61 0 86 0 87 -115 0
-115 0 0 -655 0 -655 115 0 115 0 0 467 0 467 73 72 c56 55 85 75 127 89 57
19 147 24 213 11 l37 -7 0 114 c0 96 -3 116 -16 121 -28 11 -158 6 -196 -8z"/>
<path d="M11083 1855 c-314 -68 -500 -388 -453 -778 29 -241 135 -412 311
-500 105 -53 184 -70 314 -71 130 0 205 14 300 58 133 62 242 197 261 324 l7
42 -122 0 c-119 0 -121 0 -121 -22 -1 -41 -36 -103 -81 -141 -63 -54 -156 -81
-262 -75 -209 11 -333 145 -370 401 l-6 37 496 0 496 0 -7 109 c-12 205 -70
354 -181 467 -134 136 -368 196 -582 149z m268 -185 c72 -22 125 -61 168 -123
32 -48 65 -133 76 -195 l7 -42 -364 2 -363 3 3 33 c6 55 40 144 78 199 85 123
240 172 395 123z"/>
</g>
</svg>
