<?xml version="1.0" standalone="no"?>
<!DOCTYPE svg PUBLIC "-//W3C//DTD SVG 20010904//EN"
 "http://www.w3.org/TR/2001/REC-SVG-20010904/DTD/svg10.dtd">
<svg version="1.0" xmlns="http://www.w3.org/2000/svg"
 width="2233.000000pt" height="596.000000pt" viewBox="0 0 2233.000000 596.000000"
 preserveAspectRatio="xMidYMid meet">
<metadata>
Created by potrace 1.14, written by Peter Selinger 2001-2017
</metadata>
<g transform="translate(0.000000,596.000000) scale(0.100000,-0.100000)"
fill="#000000" stroke="none">
<path d="M19225 5947 c-95 -32 -160 -79 -210 -152 -130 -191 -54 -452 162
-553 51 -24 70 -27 158 -27 89 0 107 3 163 29 80 37 161 122 193 203 18 44 23
78 23 143 1 74 -3 93 -30 150 -39 83 -101 145 -184 184 -53 25 -79 31 -150 33
-51 2 -101 -2 -125 -10z m252 -103 c199 -123 184 -431 -26 -528 -62 -28 -168
-28 -233 1 -231 104 -219 461 19 549 25 9 65 13 115 11 64 -3 85 -9 125 -33z"/>
<path d="M19223 5773 l-33 -4 0 -190 0 -189 45 0 45 0 0 75 0 75 33 0 c49 0
69 -21 87 -86 l15 -59 51 -3 52 -3 -19 67 c-19 70 -42 114 -60 114 -6 0 6 16
27 35 33 32 36 38 31 76 -3 22 -13 49 -22 59 -30 33 -136 47 -252 33z"/>
<path d="M20710 5270 l0 -690 -690 0 -690 0 0 -120 0 -120 690 0 690 0 0 -690
0 -690 125 0 125 0 0 690 0 690 685 0 685 0 0 120 0 120 -685 0 -685 0 0 690
0 690 -125 0 -125 0 0 -690z"/>
<path d="M21180 5380 l0 -580 575 0 575 0 0 580 0 580 -575 0 -575 0 0 -580z"/>
<path d="M6265 5254 c-438 -78 -728 -373 -825 -838 -56 -267 -42 -601 37 -851
92 -293 281 -513 535 -623 138 -59 254 -83 430 -89 229 -8 388 21 568 103 l78
36 114 -94 c62 -51 134 -110 159 -131 l47 -37 77 95 c60 75 74 99 65 110 -6 7
-67 59 -135 116 -119 99 -124 104 -110 124 146 196 222 374 261 615 19 115 22
389 5 510 -26 187 -90 375 -172 508 -148 241 -382 395 -678 446 -117 20 -344
20 -456 0z m435 -279 c277 -66 476 -305 536 -645 34 -197 28 -434 -17 -620
-23 -96 -102 -266 -149 -322 l-31 -38 -142 117 c-78 64 -147 120 -153 125 -8
6 -35 -21 -81 -79 -38 -48 -73 -93 -76 -99 -4 -7 44 -54 117 -115 143 -119
143 -110 0 -151 -64 -18 -104 -22 -209 -21 -231 1 -369 56 -515 202 -71 71
-94 103 -133 181 -153 309 -153 791 0 1100 39 78 62 110 133 181 117 117 236
176 400 200 75 11 241 2 320 -16z"/>
<path d="M4760 4804 l0 -406 -69 65 c-135 127 -303 184 -511 174 -328 -15
-560 -221 -657 -582 -25 -93 -27 -115 -27 -305 -1 -180 2 -216 22 -293 76
-303 255 -505 507 -572 33 -9 103 -19 155 -22 195 -12 371 51 506 179 l74 71
0 -102 0 -101 140 0 140 0 0 1150 0 1150 -140 0 -140 0 0 -406z m-334 -438
c162 -43 268 -160 321 -356 14 -51 18 -104 18 -250 0 -206 -14 -279 -76 -402
-91 -180 -272 -269 -488 -238 -245 35 -392 226 -416 540 -7 95 6 254 30 345
46 178 154 303 310 357 62 22 227 24 301 4z"/>
<path d="M12680 4803 l0 -407 -62 61 c-120 117 -250 172 -428 181 -346 16
-613 -172 -721 -507 -94 -292 -74 -638 49 -889 67 -136 186 -255 315 -315 180
-86 428 -87 601 -4 81 39 187 116 219 159 l22 30 5 -99 5 -98 138 -3 137 -3 0
1151 0 1150 -140 0 -140 0 0 -407z m-341 -434 c118 -27 225 -112 279 -222 58
-117 67 -171 67 -387 0 -174 -3 -204 -23 -275 -62 -213 -193 -339 -382 -365
-113 -16 -240 6 -326 56 -106 62 -198 205 -230 354 -21 98 -15 376 10 465 26
94 81 200 131 253 48 53 138 106 201 121 53 12 219 13 273 0z"/>
<path d="M653 5141 c-85 -14 -194 -50 -260 -87 -211 -117 -343 -361 -343 -635
l0 -79 144 0 143 0 7 83 c3 45 13 106 20 136 62 229 252 349 498 313 247 -36
373 -201 347 -453 -10 -93 -53 -183 -121 -255 -67 -71 -121 -107 -333 -224
-541 -297 -730 -529 -752 -922 l-6 -108 762 0 761 0 0 140 0 140 -600 0 -600
0 21 52 c45 116 147 225 303 326 37 24 158 91 268 148 233 121 315 174 396
253 147 145 211 302 212 517 0 195 -53 328 -185 459 -91 92 -180 142 -311 175
-88 23 -286 34 -371 21z"/>
<path d="M18060 4820 l0 -230 -125 0 -125 0 0 -115 0 -115 125 0 125 0 0 -612
c0 -531 2 -619 16 -669 37 -132 138 -189 334 -189 44 0 113 5 155 11 l75 11 0
123 0 122 -93 -5 c-115 -6 -160 7 -185 51 -15 29 -17 83 -20 595 l-3 562 151
0 150 0 0 115 0 115 -150 0 -150 0 0 230 0 230 -140 0 -140 0 0 -230z"/>
<path d="M10224 4626 c-148 -28 -261 -83 -344 -166 -87 -87 -129 -183 -144
-328 l-5 -53 137 3 137 3 6 50 c22 183 208 279 475 246 116 -14 182 -41 228
-92 44 -48 59 -103 54 -202 -3 -74 -5 -81 -35 -107 -39 -35 -81 -44 -323 -70
-102 -11 -212 -25 -245 -31 -337 -59 -505 -231 -505 -514 1 -268 139 -438 400
-491 63 -12 111 -15 185 -11 185 11 328 73 493 215 l50 42 11 -50 c15 -72 36
-106 82 -139 66 -48 183 -64 302 -40 l57 12 0 111 0 111 -50 -3 c-75 -6 -99 3
-116 43 -11 28 -14 123 -14 532 0 391 -3 512 -14 565 -41 190 -161 303 -376
353 -100 23 -349 29 -446 11z m531 -1199 c-40 -156 -168 -263 -365 -303 -176
-35 -328 0 -392 91 -53 76 -58 217 -10 299 25 44 89 89 153 109 30 9 134 28
232 42 188 26 285 47 352 75 l40 17 3 -135 c2 -97 -2 -151 -13 -195z"/>
<path d="M14934 4630 c-213 -39 -384 -150 -449 -293 -31 -68 -55 -160 -55
-214 l0 -43 135 0 135 0 0 28 c0 49 28 125 60 164 129 156 563 153 668 -5 24
-35 27 -52 30 -134 7 -181 4 -183 -395 -228 -318 -36 -456 -81 -566 -183 -101
-95 -140 -192 -141 -352 -1 -267 136 -441 390 -495 238 -50 490 24 685 203
l56 52 5 -49 c12 -122 101 -192 252 -198 45 -2 106 2 136 9 l55 13 3 108 3
107 -65 0 c-79 0 -104 17 -117 80 -4 25 -8 266 -9 535 0 531 -2 550 -56 656
-53 105 -159 180 -313 221 -87 23 -359 34 -447 18z m524 -1075 c-3 -131 -5
-144 -32 -198 -34 -67 -112 -145 -182 -180 -93 -47 -160 -61 -289 -61 -106 -1
-126 2 -167 23 -61 30 -114 89 -129 143 -18 69 -7 178 25 232 49 85 137 119
386 151 163 21 262 42 330 68 l55 22 3 -30 c2 -16 2 -93 0 -170z"/>
<path d="M2442 4620 c-138 -25 -243 -82 -343 -187 l-68 -72 -3 112 -3 112
-132 3 -133 3 0 -841 0 -840 140 0 140 0 0 510 c0 426 3 523 16 587 49 240
211 363 474 363 128 0 189 -19 245 -74 87 -88 94 -151 95 -839 l0 -548 143 3
142 3 0 640 c0 703 -1 716 -62 827 -56 103 -180 191 -315 223 -79 19 -266 27
-336 15z"/>
<path d="M16873 4620 c-138 -25 -274 -104 -363 -211 l-50 -60 0 121 0 121
-132 -3 -133 -3 -3 -838 -2 -838 142 3 143 3 5 555 c5 539 6 556 27 607 51
125 117 200 219 248 78 37 143 48 268 43 100 -3 116 -6 163 -32 58 -32 96 -80
121 -153 15 -42 17 -122 20 -660 l3 -613 145 0 145 0 -3 663 c-3 645 -4 664
-25 724 -72 212 -241 318 -523 328 -63 2 -138 0 -167 -5z"/>
<path d="M13991 4604 c-120 -32 -222 -118 -288 -239 l-32 -60 -1 143 0 143
-137 -3 -138 -3 0 -835 0 -835 143 -3 142 -3 0 508 c0 398 3 522 14 574 46
216 200 329 448 329 l69 0 -3 148 -3 147 -80 2 c-46 1 -103 -4 -134 -13z"/>
<path d="M7940 3952 c0 -354 4 -661 9 -688 20 -106 51 -166 120 -235 116 -115
230 -154 451 -153 132 0 152 3 225 28 123 42 216 107 278 193 l32 45 5 -113 5
-114 135 0 135 0 0 835 0 835 -140 0 -140 0 -6 -535 c-6 -581 -5 -576 -65
-699 -50 -101 -151 -181 -264 -209 -127 -31 -264 -23 -350 21 -48 24 -100 90
-122 155 -9 27 -14 202 -18 652 l-5 615 -142 3 -143 3 0 -639z"/>
<path d="M13116 2350 c-162 -41 -285 -121 -356 -232 -54 -82 -73 -164 -68
-281 3 -81 8 -103 36 -160 39 -79 102 -139 199 -189 73 -39 222 -89 318 -108
33 -6 123 -28 200 -47 217 -55 305 -101 353 -182 23 -40 27 -57 27 -126 0 -69
-4 -86 -28 -127 -53 -91 -153 -146 -306 -169 -201 -29 -409 25 -521 134 -50
49 -97 142 -106 210 l-7 48 -116 -3 -116 -3 4 -55 c11 -179 117 -350 276 -445
151 -90 425 -136 625 -105 92 15 208 55 276 96 348 209 348 675 -1 856 -85 44
-173 71 -460 141 -122 30 -249 67 -283 82 -104 47 -151 123 -139 227 11 88 62
152 162 199 121 57 347 62 486 9 107 -39 191 -140 206 -245 l6 -45 118 0 119
0 0 33 c0 18 -7 60 -15 92 -39 150 -135 266 -276 333 -127 61 -190 74 -374 78
-136 3 -172 1 -239 -16z"/>
<path d="M15560 2356 c-249 -53 -459 -214 -572 -441 -83 -166 -121 -393 -99
-596 36 -337 202 -594 466 -725 140 -69 223 -87 395 -87 165 0 249 17 381 79
l77 36 146 -116 c80 -64 147 -116 150 -116 2 0 36 38 75 84 l71 85 -130 101
c-72 56 -130 104 -130 106 0 2 20 32 45 66 135 182 203 459 177 714 -15 149
-43 251 -102 369 -105 214 -259 346 -490 420 -75 25 -104 28 -240 31 -104 2
-176 -1 -220 -10z m349 -211 c194 -46 351 -206 419 -427 50 -162 49 -411 -3
-576 -25 -78 -90 -199 -117 -216 -11 -7 -39 10 -109 66 -52 41 -99 77 -106 81
-15 9 -161 -162 -146 -171 33 -21 163 -128 163 -134 0 -16 -140 -50 -225 -55
-255 -15 -460 108 -571 342 -64 134 -89 299 -73 480 11 130 30 201 81 305 72
149 208 261 369 304 71 19 237 20 318 1z"/>
<path d="M0 1436 l0 -906 120 0 120 0 0 360 0 360 248 0 c437 0 594 35 730
163 100 95 141 194 149 363 14 289 -106 465 -372 541 -52 15 -123 17 -527 21
l-468 3 0 -905z m932 660 c62 -23 131 -85 160 -144 19 -40 23 -62 23 -147 -1
-121 -25 -186 -88 -240 -88 -76 -201 -95 -559 -95 l-228 0 0 326 0 325 323 -3
c277 -4 329 -7 369 -22z"/>
<path d="M17510 1435 l0 -905 560 0 560 0 0 110 0 110 -440 0 -440 0 0 795 0
795 -120 0 -120 0 0 -905z"/>
<path d="M6070 2010 l0 -160 -80 0 -80 0 0 -95 0 -95 80 0 80 0 0 -453 c0
-498 4 -538 59 -607 46 -58 119 -81 256 -81 172 1 165 -4 165 100 l0 88 -90
-1 c-83 -1 -91 1 -115 24 -39 40 -45 107 -45 538 l0 392 110 0 111 0 -3 93 -3
92 -107 3 -108 3 0 159 0 160 -115 0 -115 0 0 -160z"/>
<path d="M2586 1854 c-210 -51 -362 -208 -422 -439 -29 -110 -26 -363 4 -470
86 -300 318 -462 629 -442 320 21 518 219 564 563 23 175 -10 379 -84 519 -41
77 -135 171 -214 213 -128 68 -330 92 -477 56z m319 -199 c142 -69 215 -228
215 -470 0 -239 -63 -380 -202 -456 -60 -32 -68 -34 -163 -34 -118 0 -173 20
-243 88 -82 79 -120 185 -128 357 -14 295 89 491 283 540 65 16 178 5 238 -25z"/>
<path d="M4500 1863 c-61 -10 -155 -48 -209 -84 -106 -71 -154 -160 -154 -289
-1 -122 36 -200 123 -259 63 -43 119 -63 357 -127 215 -57 292 -89 318 -128
36 -55 27 -149 -20 -204 -14 -16 -48 -40 -77 -53 -47 -21 -67 -24 -178 -24
-109 1 -132 4 -177 24 -73 33 -118 85 -133 155 l-11 56 -116 0 -116 0 6 -52
c18 -178 136 -302 337 -355 94 -25 323 -24 404 0 141 44 242 117 293 214 79
147 58 332 -47 427 -74 66 -149 95 -444 171 -254 65 -291 89 -283 188 5 64 30
96 102 132 55 28 68 30 165 30 78 0 117 -5 152 -18 52 -20 105 -73 114 -115 3
-15 7 -33 10 -39 2 -10 35 -13 119 -13 l115 0 0 28 c0 45 -30 133 -60 177 -48
70 -144 124 -268 150 -62 14 -261 18 -322 8z"/>
<path d="M7641 1855 c-139 -39 -262 -145 -329 -285 -67 -139 -76 -189 -77
-395 0 -158 3 -190 23 -260 64 -221 192 -355 384 -400 164 -39 317 2 445 119
l53 48 0 -49 c0 -83 -20 -212 -42 -270 -28 -76 -90 -137 -159 -157 -60 -18
-215 -21 -270 -6 -80 22 -141 86 -153 159 l-6 41 -122 0 -121 0 6 -55 c15
-151 135 -268 327 -321 49 -14 100 -18 205 -18 126 0 148 3 219 27 169 59 266
167 323 362 16 54 18 128 21 758 l3 697 -116 0 -115 0 0 -50 0 -50 -52 35
c-86 56 -158 77 -283 81 -78 3 -126 -1 -164 -11z m239 -175 c64 -12 143 -52
210 -105 l50 -40 0 -311 0 -312 -45 -54 c-76 -93 -178 -154 -274 -164 -157
-17 -268 64 -322 236 -26 82 -37 301 -20 408 41 264 181 384 401 342z"/>
<path d="M9751 1854 c-67 -24 -112 -56 -174 -125 l-57 -62 0 91 0 92 -115 0
-115 0 0 -660 0 -660 115 0 115 0 0 465 0 464 60 64 c42 46 77 72 121 92 57
25 69 27 165 23 l105 -4 -3 116 -3 115 -85 2 c-57 2 -100 -3 -129 -13z"/>
<path d="M11062 1850 c-106 -28 -167 -65 -252 -150 -85 -84 -124 -154 -161
-285 -30 -105 -33 -331 -6 -440 58 -229 196 -378 417 -446 97 -30 289 -33 389
-5 129 35 237 107 301 201 32 47 70 145 70 180 l0 25 -120 0 c-118 0 -120 0
-120 -22 -1 -34 -34 -100 -66 -130 -16 -15 -56 -39 -89 -55 -54 -25 -71 -28
-165 -28 -99 0 -110 2 -172 33 -40 19 -82 50 -104 75 -61 70 -114 208 -114
297 l0 30 492 0 491 0 -6 113 c-17 311 -151 508 -407 599 -84 30 -281 35 -378
8z m321 -193 c72 -33 118 -76 155 -144 24 -47 62 -159 62 -187 0 -3 -164 -6
-365 -6 l-364 0 6 33 c18 96 86 223 140 263 76 56 140 75 240 69 49 -2 90 -11
126 -28z"/>
</g>
</svg>
