<?xml version="1.0" encoding="utf-8"?>
<!-- Generator: Adobe Illustrator 16.0.0, SVG Export Plug-In . SVG Version: 6.00 Build 0)  -->
<!DOCTYPE svg PUBLIC "-//W3C//DTD SVG 1.1//EN" "http://www.w3.org/Graphics/SVG/1.1/DTD/svg11.dtd">
<svg version="1.1" id="Livello_2" xmlns="http://www.w3.org/2000/svg" xmlns:xlink="http://www.w3.org/1999/xlink" x="0px" y="0px"
	 width="185px" height="188px" viewBox="0 0 185 188" enable-background="new 0 0 185 188" xml:space="preserve">
<path opacity="0.3" fill="#1D1D1B" d="M9.997,32.583c-0.066-0.085-0.152-0.178-0.215-0.25c-0.149-0.171-0.248-0.314-0.359-0.475
	c-0.122-0.178-0.144-0.331-0.257-0.506C9.061,31.188,9,31.024,8.894,30.854c-0.092-0.146-0.232-0.271-0.299-0.407
	c-0.062-0.123-0.042-0.241-0.11-0.376c-0.049-0.097-0.169-0.2-0.214-0.298c-0.062-0.133-0.038-0.277-0.091-0.438
	c-0.05-0.149-0.144-0.313-0.167-0.449c-0.05-0.29-0.026-0.571-0.068-0.857c-0.015-0.099-0.076-0.208-0.091-0.31
	c-0.015-0.104,0.031-0.193,0.023-0.292c-0.008-0.112-0.037-0.231-0.038-0.345c0-0.117,0.035-0.225,0.038-0.343
	c0.002-0.116-0.066-0.27-0.077-0.387c-0.01-0.123-0.007-0.233-0.013-0.357c-0.007-0.127-0.048-0.257-0.034-0.365
	c0.015-0.116,0.071-0.223,0.08-0.347c0.01-0.123,0.02-0.233,0.065-0.341c0.094-0.223,0.081-0.472,0.145-0.683
	c0.037-0.118,0.11-0.21,0.148-0.305c0.195-0.483,0.829-0.968,1.177-1.442c0.272-0.371,0.484-0.808,1.122-1.133
	c0.626-0.32,1.32-0.561,2.05-0.692c0.336-0.059,0.715-0.09,1.083-0.145c0.339-0.051,0.755-0.076,1.071-0.19
	c0.382-0.138,0.643-0.377,1.042-0.533c0.4-0.156,0.737-0.366,0.979-0.561c0.173-0.14,0.32-0.321,0.477-0.488
	c0.16-0.17,0.292-0.334,0.403-0.503c0.136-0.208,0.228-0.493,0.357-0.751c0.122-0.243,0.322-0.471,0.424-0.726
	c0.101-0.251,0.249-0.494,0.401-0.74c0.147-0.233,0.371-0.465,0.387-0.732c0.007-0.121-0.117-0.328-0.174-0.471
	c-0.183-0.466-0.503-0.972-0.613-1.42c-0.078-0.319,0.106-0.561,0.415-0.822c0.56-0.477,1.09-0.937,1.789-1.398
	c0.414-0.274,0.765-0.58,1.288-0.812c0.627-0.277,1.154-0.669,1.821-0.981c0.302-0.141,0.688-0.24,0.974-0.396
	c0.205-0.112,0.343-0.271,0.477-0.421c0.215-0.24,0.273-0.53,0.481-0.78c0.377-0.456,1.091-0.79,1.875-1.163
	c0.294-0.14,0.633-0.229,0.918-0.341c0.24-0.095,0.443-0.209,0.705-0.259c0.17-0.033,0.408-0.019,0.625-0.039
	c0.648-0.059,1.229-0.043,1.917,0.039c0.445,0.053,0.876,0.069,1.301,0.101c0.906,0.068,1.648,0.112,2.594,0.305
	c0.227,0.046,0.441,0.103,0.66,0.146c0.235,0.048,0.431,0.095,0.66,0.151c0.168,0.041,0.342,0.065,0.523,0.11
	c0.505,0.125,0.981,0.178,1.497,0.28c0.315,0.062,0.691,0.176,1.038,0.259c0.688,0.166,1.277,0.353,2,0.634
	c0.317,0.124,0.627,0.118,0.98,0.255c0.171,0.067,0.433,0.301,0.674,0.377c0.626,0.197,1.35,0.326,1.971,0.471
	c0.446,0.104,0.903,0.26,1.339,0.359c0.788,0.181,1.467,0.292,2.253,0.505c0.325,0.121,0.687,0.218,1.021,0.357
	c0.31,0.13,0.599,0.264,0.903,0.392c0.151,0.063,0.292,0.148,0.442,0.208c0.203,0.079,0.406,0.093,0.596,0.178
	c0.52,0.02,1.024-0.016,1.608,0.223c0.25-0.198,0.154-0.603,0.643-0.66c0.409,0.201,0.154,0.383,0.314,0.579
	c0.636-0.226,1.393-0.495,1.792-0.89c0.252-0.25,0.434-0.537,0.78-0.845c0.201-0.179,0.647-0.907,0.846-0.802
	c0.208,0.11,0.207,1.21,0.208,1.334c0,0.175-0.014,0.333-0.071,0.443c-0.192,0.369-0.506,0.799-1.005,1.163
	c-0.499,0.365-1.085,0.703-1.794,0.942c0.423,0.196,1.069,0.542,1.532,0.898c0.133,0.103,0.284,0.207,0.439,0.302
	c0.305,0.187,0.641,0.277,0.972,0.429c0.259,0.12,0.554,0.288,0.789,0.463c0.116,0.087,0.192,0.231,0.328,0.317
	c0.137,0.086,0.351,0.118,0.496,0.205c0.147,0.089,0.25,0.25,0.433,0.365c0.151,0.094,0.348,0.152,0.449,0.229
	c0.16,0.122,0.177,0.262,0.318,0.389c0.261,0.233,0.671,0.43,0.882,0.679c0.135,0.161,0.05,0.2,0.22,0.362
	c0.287,0.115,0.499,0.232,0.649,0.442c0.03,0.042,0.007,0.093,0.061,0.147c0.069,0.067,0.195,0.123,0.252,0.177
	c0.17,0.166,0.272,0.326,0.392,0.454c0.236,0.097,0.42,0.189,0.617,0.331c0.171,0.122,0.255,0.278,0.43,0.417
	c0.115,0.091,0.296,0.171,0.401,0.254c0.159,0.127,0.215,0.278,0.332,0.391c0.18,0.086,0.237,0.082,0.359,0.173
	c0.146,0.11,0.065,0.209,0.176,0.292c0.076,0.056,0.266,0.093,0.39,0.157c0.121,0.061,0.218,0.179,0.37,0.27
	c0.241,0.146,0.459,0.183,0.563,0.375c0.199,0.072,0.281,0.085,0.435,0.185c0.127,0.083,0.128,0.161,0.233,0.239
	c0.2,0.147,0.558,0.266,0.582,0.441c0.265,0.077,0.601,0.255,0.668,0.423c0.304,0.098,0.56,0.288,0.842,0.461
	c0.088,0.054,0.136,0.125,0.191,0.157c0.207,0.119,0.6,0.196,0.646,0.409c0.269,0.049,0.379,0.207,0.573,0.345
	c0.292,0.208,0.737,0.397,0.887,0.616c0.167,0.085,0.271,0.108,0.403,0.202c0.105,0.074,0.134,0.147,0.227,0.215
	c0.171,0.128,0.445,0.229,0.47,0.371c0.285,0.149,0.491,0.337,0.672,0.497c0.085,0.076,0.112,0.15,0.194,0.232
	c0.054,0.054,0.142,0.106,0.191,0.158c0.079,0.08,0.066,0.173,0.146,0.255c0.061,0.062,0.182,0.11,0.229,0.164
	c0.073,0.081,0.083,0.186,0.152,0.283c0.088,0.123,0.22,0.268,0.28,0.387c0.061,0.125,0.042,0.319,0.079,0.521
	c0.106,0.589-0.05,1.284-0.641,1.727c-0.445,0.336-1.315,0.668-1.83,0.885c-0.195,0.083-0.806,0.063-1.068,0.011
	c-0.393-0.077-0.882-0.369-0.529-0.528c-0.13-0.359-0.702-0.903-0.749-1.239c-0.007-0.054,0.208-0.217,0.328-0.244
	c0.187-0.043,0.453,0.013,0.65,0.05c0.128,0.023,0.522,0.169,0.66,0.146c0.229-0.037,0.32-0.455,0.307-0.564
	c-0.061-0.518-1.287-1.398-2.436-2.067c-0.58-0.337-1.278-0.668-1.948-1.017c-0.689-0.358-1.306-0.79-1.993-1.172
	c-1.327-0.737-2.703-1.459-3.936-2.167c-0.338-0.194-0.63-0.408-0.935-0.592c-0.863-0.521-1.744-1.074-2.699-1.601
	c-1.031-0.568-2.208-0.817-3.224-1.283c-0.353-0.161-0.676-0.328-1.026-0.469c-0.332-0.134-0.697-0.256-0.991-0.411
	c-0.297-0.156-0.665-0.418-0.983-0.568c-1.489-0.701-2.657-0.125-3.854-0.018c-0.001,0.422,0.617,1.366,0.617,1.366
	s0.197,0.375,0.155,0.532c-0.024,0.093-0.056,0.21-0.099,0.323c-0.103,0.267-0.31,0.574-0.646,0.797
	c-0.474,0.313-0.934,0.663-1.318,1.034c-0.072,0.071-0.163,0.171-0.235,0.243c-0.067,0.068-0.092,0.129-0.167,0.196
	c-0.099,0.091-0.238,0.195-0.328,0.287c-0.172,0.176-0.359,0.238-0.317,0.468c0.017,0.094,0.034,0.14,0.043,0.208
	c0.025,0.21,0.271,0.564,0.495,0.766c0.067,0.061,0.141,0.144,0.217,0.203c0.702,0.555,1.208,1.112,1.95,1.669
	c0.263,0.198,0.636,0.385,0.93,0.596c0.843,0.603,1.685,1.137,2.639,1.582c0.704,0.326,1.243,0.628,1.932,0.898
	c0.517,0.202,1.215,0.307,1.754,0.478c0.188,0.06,0.378,0.117,0.596,0.197c0.271,0.099,0.634,0.232,0.947,0.34
	c0.293,0.101,0.603,0.192,0.861,0.256c0.39,0.098,0.848,0.136,1.256,0.242c0.442,0.115,1.028,0.34,1.59,0.538
	c0.523,0.182,1.13,0.351,1.576,0.545c0.859,0.375,1.583,0.765,2.247,1.297c0.118,0.095,0.253,0.202,0.368,0.305
	c0.117,0.105,0.235,0.209,0.337,0.304c0.205,0.193,0.417,0.479,0.689,0.726c0.293,0.267,0.478,0.707,0.4,0.959
	c0.2,0.519,0.063,0.75,0.241,1.201c0.106,0.268,0.188,0.465,0.457,0.761c0.089,0.098,0.243,0.241,0.346,0.316
	c0.15,0.106,0.316,0.178,0.437,0.252c0.5,0.31,0.898,0.738,1.157,1.039c0.464,0.545,0.342,0.976-0.357,1.33
	c-0.108,0.055-0.197,0.115-0.325,0.175c-0.091,0.042-0.194,0.08-0.275,0.132c-0.111,0.071-0.25,0.116-0.369,0.189
	c-0.11,0.066-0.224,0.12-0.346,0.185c-0.113,0.06-0.245,0.119-0.376,0.183c-0.134,0.066-0.22,0.135-0.332,0.212
	c-0.073,0.051-0.134,0.121-0.228,0.175c-0.489,0.284-0.9,0.745-1.625,0.653c-0.222-0.028-0.553-0.155-0.806-0.276
	c-0.316-0.15-0.605-0.399-0.967-0.576c-0.155-0.075-0.277-0.142-0.431-0.212c-0.172-0.079-0.344-0.151-0.519-0.246
	c-0.328-0.173-0.65-0.317-0.948-0.509c-0.941-0.605-1.838-1.136-2.832-1.686c-0.436-0.241-0.869-0.457-1.275-0.699
	c-0.839-0.501-1.625-1.047-2.49-1.505c-0.209-0.11-0.467-0.217-0.718-0.347c-0.222-0.112-0.487-0.228-0.711-0.324
	c-0.469-0.2-1-0.365-1.397-0.56c-0.546-0.268-1.02-0.61-1.494-0.807c-0.159-0.066-0.344-0.112-0.533-0.169
	c-0.119-0.035-0.231-0.073-0.38-0.12c-0.214-0.069-0.466-0.127-0.656-0.193c-0.292-0.101-0.55-0.195-0.782-0.254
	c-0.191-0.047-0.427-0.072-0.649-0.109c-0.4-0.066-1.155-0.367-1.695-0.586c-0.288-0.116-0.604-0.263-0.969-0.396
	c-0.297-0.11-0.826-0.292-0.962-0.248c-0.185,0.059-0.158,0.385-0.222,0.546c-0.088,0.224-0.259,0.366-0.352,0.538
	c-0.087,0.158-0.133,0.322-0.21,0.464c-0.268,0.484-0.583,0.942-0.814,1.443c-0.066,0.146-0.085,0.245-0.172,0.384
	c-0.043,0.07-0.109,0.188-0.15,0.255c-0.037,0.063-0.049,0.127-0.09,0.19c-0.033,0.054-0.078,0.115-0.113,0.168
	c-0.101,0.153-0.131,0.337-0.219,0.494c-0.089,0.161-0.139,0.347-0.181,0.501c-0.021,0.079-0.035,0.188-0.064,0.262
	c-0.078,0.202,2.465,15.533,2.164,15.798c-0.191,0.167-0.696,0.34-0.999,0.496c-0.593,0.303-1.15,0.608-1.7,0.894
	c-0.505,0.262-0.551,1.209-1.511,1.618c-0.217,0.092-0.545-1.146-0.714-1.29c-0.178-0.15-0.417-0.654-0.492-0.815
	c-0.504-0.169-0.664-0.562-0.929-0.81c-0.165-0.153-0.371-0.287-0.5-0.406c-0.418-0.386-0.737-0.759-1.233-1.179
	c-0.163-0.138-0.375-0.267-0.515-0.398c-0.119-0.111-0.174-0.213-0.301-0.322c-0.198-0.172-0.497-0.355-0.75-0.542
	c-0.4-0.298-0.679-0.557-1.006-0.837c-0.119-0.1-0.265-0.198-0.372-0.265c-0.177-0.109-0.363-0.183-0.552-0.294
	c-0.135-0.081-0.35-0.188-0.5-0.291c-0.147-0.101-0.31-0.206-0.456-0.304c-0.234-0.154-0.358-0.208-0.614-0.356
	c-0.153-0.088-0.377-0.227-0.541-0.309c-0.187-0.093-0.362-0.226-0.549-0.324c-0.503-0.265-0.951-0.552-1.409-0.826
	c-0.301-0.18-0.823-0.494-0.823-0.494s-0.975-0.581-1.53-0.936c-0.555-0.354-1.118-0.723-1.727-1.129
	c-1.122-0.751-2.304-1.749-3.509-2.513c1.22,1.088,2.581,2.181,3.91,3.326c0.917,0.791,1.991,1.67,2.904,2.491
	c0.298,0.268,0.595,0.601,0.908,0.809c0.096,0.065,0.203,0.097,0.298,0.152c0.628,0.375,1.147,0.85,1.534,1.28
	c0.145,0.161,0.221,0.333,0.354,0.533c0.132,0.195,0.306,0.402,0.384,0.568c0.177,0.381,0.369,0.959,0.14,1.291
	c-0.096,0.139,0.082,0.589-0.208,0.38c-0.257-0.187-0.554-0.806-0.635-1.032c-0.077-0.215-0.326-0.566-0.556-0.786
	c-0.622-0.591-1.564-1.177-1.751-1.653c-0.038-0.093,0.03-0.201-0.008-0.275c-0.069-0.137-0.515-0.474-0.752-0.712
	c-0.507-0.508-1.083-0.938-1.747-1.451c-0.308-0.237-0.559-0.481-0.827-0.686c-0.093-0.071-0.226-0.192-0.298-0.244
	c-0.218-0.153-0.437-0.345-0.648-0.528c-0.22-0.194-0.433-0.366-0.682-0.55c-0.16-0.119-0.262-0.218-0.39-0.323
	c-0.131-0.106-0.295-0.22-0.434-0.324c-0.298-0.227-0.522-0.416-0.929-0.698c-0.676-0.469-1.48-1.13-2.259-1.648
	c-0.279-0.185-0.513-0.365-0.76-0.555c-0.26-0.197-0.522-0.394-0.79-0.583c-0.263-0.186-0.5-0.373-0.737-0.546
	c-0.552-0.403-1.153-0.815-1.731-1.205c-0.657-0.442-1.469-0.868-1.95-1.271c-0.163-0.137-0.294-0.327-0.456-0.506
	c-0.562-0.624-1.246-1.309-1.655-1.879"/>
<path fill="#1D70B7" d="M39.561,28.173l11.934-6.234c3.734-1.95,8.274-3.406,8.274,4.355c0,8.603-4.906,11.861-8.274,13.364
	c-1.464,0.655-4.649,1.807-4.832,1.792v9.812l-7.102,3.709V28.173z M50.763,34.037c1.391-0.727,1.867-2.037,1.867-3.904
	c0-1.831-0.586-2.44-1.867-1.771l-4.1,2.142v5.674L50.763,34.037z"/>
<path fill="#1D70B7" d="M69.944,12.01c5.821-3.041,6.187-3.231,11.129-4.458v5.454c-0.22,0.115-4.283,1.432-8.932,3.86
	c-3.405,1.778-3.991,3.732-3.991,9.7c0,6.003,0.22,7.024,3.442,5.341c2.27-1.186,2.636-3.062,2.636-3.062v-2.745l-1.794,0.937
	v-4.393c1.647-1.74,3.991-3,6.407-4.262c0.769-0.402,1.611-0.805,2.489-1.191v15.962l-5.015,2.619l-2.014-0.742
	c-1.025,1.89-1.61,2.636-4.54,4.348c-7.578,4.435-8.713-1.636-8.713-9.177C61.048,22.038,62.659,15.815,69.944,12.01z"/>
<path fill="#6F6F6E" d="M142.289,37.349h0.803l-2.68,4.257h2.59V39.72l0.336-0.684h0.338v2.571h0.82v0.539l-0.82,0.172v1.687h-0.674
	v-1.687h-3.328l-0.311-0.337L142.289,37.349z"/>
<path fill="#6F6F6E" d="M144.859,39.337l0.902-0.164l0.166-1.35h0.51v1.35h1.412v0.673h-1.412v2.443c0,0.793,0.209,0.976,0.52,1.049
	c0,0,0.748,0.191,0.811,0.191v0.483h-0.801c-0.703,0-1.205-0.437-1.205-1.723v-2.443h-0.902V39.337z"/>
<path fill="#6F6F6E" d="M148.67,36.875h0.674v2.872c0.557-0.319,1.049-0.647,1.787-0.647c0.967,0,1.494,0.747,1.494,1.55v3.373
	h-0.674V40.65c0-0.602-0.346-0.875-0.82-0.875c-0.73,0-1.084,0.183-1.787,0.52v3.729h-0.674V36.875z"/>
<path fill="#6F6F6E" d="M155.715,43.339c0.674,0.165,1.688,0.447,1.695-0.821v-5.169h0.674v5.169c0,0.429-0.016,1.049-0.475,1.341
	c-0.482,0.31-1.457,0.283-1.932-0.028L155.715,43.339z"/>
<path fill="#6F6F6E" d="M159.361,37.349h0.672v3.756c0,2.343,0.73,2.289,1.797,2.289c0.902,0,1.742-0.018,1.742-2.289v-3.756h0.684
	v3.756c0,2.945-1.322,2.963-2.426,2.963c-1.238,0-2.469,0.074-2.469-2.963V37.349z"/>
<path fill="#6F6F6E" d="M165.531,37.349h0.674v5.525c0,0.483,0.301,0.474,0.564,0.474h2.791v0.675h-2.791
	c-0.602,0-1.238-0.119-1.238-1.148V37.349z"/>
<path fill="#6F6F6E" d="M170.205,37.349l1.725,3.5l1.904-3.5h0.738l-2.307,4.303v2.37h-0.674v-2.37l-2.123-4.303H170.205z"/>
<path fill="#6F6F6E" d="M151.691,47.124c0.994-0.173,1.912-0.28,3.324-0.28c1.652,0,2.371,1.133,2.371,2.478
	c0,1.794-2.293,3.649-3.02,4.227h3.02v1.412h-5.613v-1.345c1.023-0.689,4.076-3.018,4.076-4.286c0-0.727-0.379-1.064-1.32-1.064
	h-2.838V47.124z"/>
<path fill="#6F6F6E" d="M158.371,48.965c0-1.313,0.795-2.012,2.014-2.012h1.795c1.473,0,1.936,0.903,1.936,1.952v4.102
	c0,1.301-0.732,1.953-1.943,1.953h-1.793c-1.229,0-2.008-0.641-2.008-1.953V48.965z M160.729,53.548h1.059
	c0.514,0,0.795-0.191,0.795-0.781v-3.621c0-0.504-0.219-0.783-0.746-0.783h-1.15c-0.656,0-0.783,0.468-0.783,0.783v3.614
	C159.902,53.427,160.359,53.548,160.729,53.548z"/>
<path fill="#6F6F6E" d="M165.012,47.858l1.549-0.905h1.52v8.007h-1.531v-6.487l-1.537,0.386V47.858z"/>
<path fill="#6F6F6E" d="M168.99,46.954h5.152l0.416,0.705l-2.682,7.302h-1.672l2.461-6.596h-3.676V46.954z"/>
<path fill="#29235C" d="M85.602,9.599h8.926c7.383,0,8.531,7.187,8.531,12.108c0,5.447-2.199,11.911-8.531,11.911h-8.926V9.599z
	 M94.527,31.092c4.33,0,6.104-4.364,6.104-9.418c0-7.022-2.299-9.647-6.104-9.647h-6.498v19.065H94.527z"/>
<path fill="#29235C" d="M105.846,27.482c0-2.625,1.641-4.364,4.365-4.364c0,0,7.283,0.033,7.283,0c0,0,0.035-2.166,0-2.198
	c0-2.002-1.049-2.691-2.689-2.691c-2.363,0-5.217,0.164-8.4,0.395v-1.772c2.33-0.656,5.25-0.952,8.498-0.984
	c2.723-0.033,5.021,1.444,5.021,5.054v12.698h-1.805l-0.625-2.1c-0.064,0-4.299,2.297-7.283,2.297c-2.396,0-4.365-1.542-4.365-4.332
	V27.482z M110.211,31.388c2.625,0,7.283-1.673,7.283-1.673v-4.693l-7.283,0.525c-1.412,0.131-1.938,1.083-1.938,2.133v1.641
	C108.273,30.895,109.096,31.388,110.211,31.388z"/>
<path fill="#29235C" d="M124.32,16.194l4.232,13.618c0.59,1.87,2.197,1.28,2.166,1.28l4.986-14.898h2.725l-7.68,22.937l-2.459,3.348
	h-1.512l3.086-8.861c-0.689,0-2.855-0.065-3.938-3.608l-4.268-13.815H124.32z"/>
<path fill="#F29100" d="M145.229,16.272h4.598v9.764c0,2.227,0.047,3.578,2.299,3.578c2.109,0,2.156-1.445,2.156-3.578v-9.764h4.621
	v9.764c0,7.654-3.91,7.701-6.777,7.701c-3.225,0-6.896,0.19-6.896-7.701V16.272z"/>
<path fill="#F29100" d="M160.75,16.272h4.359v6.825h0.949l3.531-6.825h5.283l-4.762,8.721l4.762,8.625h-5.283l-3.531-6.635h-0.924
	v6.635h-4.385V16.272z"/>
<path opacity="0.3" fill="#1D1D1B" d="M9.997,97.583c-0.066-0.085-0.152-0.179-0.215-0.249c-0.149-0.172-0.248-0.314-0.359-0.475
	c-0.122-0.179-0.144-0.331-0.257-0.507C9.061,96.188,9,96.024,8.894,95.854c-0.092-0.146-0.232-0.271-0.299-0.406
	c-0.062-0.123-0.042-0.242-0.11-0.377c-0.049-0.098-0.169-0.2-0.214-0.298c-0.062-0.134-0.038-0.277-0.091-0.438
	c-0.05-0.149-0.144-0.313-0.167-0.449c-0.05-0.29-0.026-0.571-0.068-0.857c-0.015-0.099-0.076-0.208-0.091-0.31
	c-0.015-0.104,0.031-0.193,0.023-0.292c-0.008-0.112-0.037-0.231-0.038-0.345c0-0.117,0.035-0.225,0.038-0.343
	c0.002-0.116-0.066-0.27-0.077-0.387c-0.01-0.123-0.007-0.233-0.013-0.357c-0.007-0.127-0.048-0.257-0.034-0.365
	c0.015-0.116,0.071-0.223,0.08-0.347c0.01-0.123,0.02-0.233,0.065-0.341c0.094-0.223,0.081-0.472,0.145-0.683
	c0.037-0.118,0.11-0.21,0.148-0.305c0.195-0.483,0.829-0.968,1.177-1.442c0.272-0.371,0.484-0.808,1.122-1.133
	c0.626-0.32,1.32-0.561,2.05-0.692c0.336-0.059,0.715-0.09,1.083-0.145c0.339-0.051,0.755-0.076,1.071-0.19
	c0.382-0.138,0.643-0.377,1.042-0.533c0.4-0.156,0.737-0.366,0.979-0.561c0.173-0.14,0.32-0.321,0.477-0.488
	c0.16-0.17,0.292-0.334,0.403-0.503c0.136-0.208,0.228-0.493,0.357-0.751c0.122-0.243,0.322-0.471,0.424-0.726
	c0.101-0.251,0.249-0.494,0.401-0.74c0.147-0.233,0.371-0.465,0.387-0.732c0.007-0.121-0.117-0.328-0.174-0.471
	c-0.183-0.466-0.503-0.972-0.613-1.42c-0.078-0.319,0.106-0.561,0.415-0.822c0.56-0.477,1.09-0.937,1.789-1.398
	c0.414-0.274,0.765-0.58,1.288-0.812c0.627-0.277,1.154-0.669,1.821-0.981c0.302-0.141,0.688-0.24,0.974-0.396
	c0.205-0.112,0.343-0.271,0.477-0.421c0.215-0.24,0.273-0.53,0.481-0.78c0.377-0.456,1.091-0.79,1.875-1.163
	c0.294-0.14,0.633-0.229,0.918-0.341c0.24-0.095,0.443-0.209,0.705-0.259c0.17-0.033,0.408-0.019,0.625-0.039
	c0.648-0.059,1.229-0.043,1.917,0.039c0.445,0.053,0.876,0.069,1.301,0.101c0.906,0.068,1.648,0.112,2.594,0.305
	c0.227,0.046,0.441,0.103,0.66,0.146c0.235,0.048,0.431,0.095,0.66,0.151c0.168,0.041,0.342,0.065,0.523,0.11
	c0.505,0.125,0.981,0.178,1.497,0.28c0.315,0.062,0.691,0.176,1.038,0.259c0.688,0.166,1.277,0.353,2,0.634
	c0.317,0.124,0.627,0.118,0.98,0.255c0.171,0.067,0.433,0.301,0.674,0.377c0.626,0.197,1.35,0.326,1.971,0.471
	c0.446,0.104,0.903,0.26,1.339,0.359c0.788,0.181,1.467,0.292,2.253,0.505c0.325,0.121,0.687,0.218,1.021,0.357
	c0.31,0.13,0.599,0.264,0.903,0.392c0.151,0.063,0.292,0.148,0.442,0.208c0.203,0.079,0.406,0.093,0.596,0.178
	c0.52,0.02,1.024-0.016,1.608,0.223c0.25-0.198,0.154-0.603,0.643-0.66c0.409,0.201,0.154,0.383,0.314,0.579
	c0.636-0.226,1.393-0.495,1.792-0.89c0.252-0.25,0.434-0.537,0.78-0.845c0.201-0.179,0.647-0.907,0.846-0.802
	c0.208,0.11,0.207,1.21,0.208,1.334c0,0.175-0.014,0.333-0.071,0.443c-0.192,0.369-0.506,0.799-1.005,1.163
	c-0.499,0.365-1.085,0.703-1.794,0.942c0.423,0.196,1.069,0.542,1.532,0.898c0.133,0.103,0.284,0.207,0.439,0.302
	c0.305,0.187,0.641,0.277,0.972,0.429c0.259,0.12,0.554,0.288,0.789,0.463c0.116,0.087,0.192,0.231,0.328,0.317
	c0.137,0.086,0.351,0.118,0.496,0.205c0.147,0.089,0.25,0.25,0.433,0.365c0.151,0.094,0.348,0.152,0.449,0.229
	c0.16,0.122,0.177,0.262,0.318,0.389c0.261,0.233,0.671,0.43,0.882,0.679c0.135,0.161,0.05,0.2,0.22,0.362
	c0.287,0.115,0.499,0.232,0.649,0.442c0.03,0.042,0.007,0.093,0.061,0.147c0.069,0.067,0.195,0.123,0.252,0.177
	c0.17,0.166,0.272,0.326,0.392,0.454c0.236,0.097,0.42,0.189,0.617,0.331c0.171,0.122,0.255,0.278,0.43,0.417
	c0.115,0.091,0.296,0.171,0.401,0.254c0.159,0.127,0.215,0.278,0.332,0.391c0.18,0.086,0.237,0.082,0.359,0.173
	c0.146,0.11,0.065,0.209,0.176,0.292c0.076,0.056,0.266,0.093,0.39,0.157c0.121,0.061,0.218,0.179,0.37,0.27
	c0.241,0.146,0.459,0.183,0.563,0.375c0.199,0.072,0.281,0.085,0.435,0.185c0.127,0.083,0.128,0.161,0.233,0.239
	c0.2,0.147,0.558,0.266,0.582,0.441c0.265,0.077,0.601,0.255,0.668,0.423c0.304,0.098,0.56,0.288,0.842,0.461
	c0.088,0.054,0.136,0.125,0.191,0.157c0.207,0.119,0.6,0.196,0.646,0.409c0.269,0.049,0.379,0.207,0.573,0.345
	c0.292,0.208,0.737,0.397,0.887,0.616c0.167,0.085,0.271,0.108,0.403,0.202c0.105,0.074,0.134,0.147,0.227,0.215
	c0.171,0.128,0.445,0.229,0.47,0.371c0.285,0.149,0.491,0.337,0.672,0.497c0.085,0.076,0.112,0.15,0.194,0.232
	c0.054,0.054,0.142,0.106,0.191,0.158c0.079,0.08,0.066,0.173,0.146,0.255c0.061,0.062,0.182,0.11,0.229,0.164
	c0.073,0.081,0.083,0.186,0.152,0.283c0.088,0.123,0.22,0.268,0.28,0.387c0.061,0.125,0.042,0.319,0.079,0.521
	c0.106,0.589-0.05,1.284-0.641,1.727c-0.445,0.336-1.315,0.668-1.83,0.885c-0.195,0.082-0.806,0.063-1.068,0.011
	c-0.393-0.077-0.882-0.369-0.529-0.528c-0.13-0.359-0.702-0.903-0.749-1.239c-0.007-0.054,0.208-0.217,0.328-0.244
	c0.187-0.043,0.453,0.013,0.65,0.05c0.128,0.023,0.522,0.169,0.66,0.146c0.229-0.037,0.32-0.455,0.307-0.564
	c-0.061-0.518-1.287-1.398-2.436-2.067c-0.58-0.337-1.278-0.668-1.948-1.017c-0.689-0.358-1.306-0.79-1.993-1.172
	c-1.327-0.737-2.703-1.459-3.936-2.167c-0.338-0.194-0.63-0.408-0.935-0.592c-0.863-0.521-1.744-1.074-2.699-1.601
	c-1.031-0.568-2.208-0.817-3.224-1.283c-0.353-0.161-0.676-0.328-1.026-0.469c-0.332-0.134-0.697-0.256-0.991-0.411
	c-0.297-0.156-0.665-0.418-0.983-0.568c-1.489-0.701-2.657-0.125-3.854-0.018c-0.001,0.422,0.617,1.366,0.617,1.366
	s0.197,0.375,0.155,0.532c-0.024,0.093-0.056,0.21-0.099,0.323c-0.103,0.267-0.31,0.574-0.646,0.797
	c-0.474,0.313-0.934,0.663-1.318,1.034c-0.072,0.071-0.163,0.171-0.235,0.243c-0.067,0.068-0.092,0.129-0.167,0.196
	c-0.099,0.091-0.238,0.195-0.328,0.287c-0.172,0.176-0.359,0.238-0.317,0.468c0.017,0.094,0.034,0.14,0.043,0.208
	c0.025,0.21,0.271,0.564,0.495,0.766c0.067,0.061,0.141,0.144,0.217,0.203c0.702,0.555,1.208,1.112,1.95,1.669
	c0.263,0.198,0.636,0.385,0.93,0.596c0.843,0.603,1.685,1.137,2.639,1.582c0.704,0.326,1.243,0.628,1.932,0.898
	c0.517,0.202,1.215,0.307,1.754,0.478c0.188,0.06,0.378,0.117,0.596,0.197c0.271,0.099,0.634,0.232,0.947,0.34
	c0.293,0.101,0.603,0.192,0.861,0.256c0.39,0.098,0.848,0.136,1.256,0.242c0.442,0.115,1.028,0.34,1.59,0.537
	c0.523,0.182,1.13,0.352,1.576,0.545c0.859,0.376,1.583,0.766,2.247,1.297c0.118,0.096,0.253,0.203,0.368,0.306
	c0.117,0.105,0.235,0.21,0.337,0.304c0.205,0.193,0.417,0.479,0.689,0.726c0.293,0.267,0.478,0.707,0.4,0.959
	c0.2,0.519,0.063,0.749,0.241,1.201c0.106,0.268,0.188,0.465,0.457,0.761c0.089,0.098,0.243,0.24,0.346,0.316
	c0.15,0.105,0.316,0.178,0.437,0.252c0.5,0.31,0.898,0.738,1.157,1.038c0.464,0.545,0.342,0.976-0.357,1.329
	c-0.108,0.055-0.197,0.115-0.325,0.176c-0.091,0.041-0.194,0.079-0.275,0.131c-0.111,0.072-0.25,0.117-0.369,0.189
	c-0.11,0.066-0.224,0.119-0.346,0.186c-0.113,0.059-0.245,0.118-0.376,0.183c-0.134,0.066-0.22,0.136-0.332,0.212
	c-0.073,0.051-0.134,0.121-0.228,0.176c-0.489,0.283-0.9,0.744-1.625,0.652c-0.222-0.027-0.553-0.155-0.806-0.276
	c-0.316-0.149-0.605-0.399-0.967-0.576c-0.155-0.075-0.277-0.142-0.431-0.212c-0.172-0.078-0.344-0.151-0.519-0.246
	c-0.328-0.173-0.65-0.316-0.948-0.508c-0.941-0.605-1.838-1.137-2.832-1.686c-0.436-0.242-0.869-0.457-1.275-0.699
	c-0.839-0.502-1.625-1.047-2.49-1.505c-0.209-0.11-0.467-0.217-0.718-0.347c-0.222-0.112-0.487-0.228-0.711-0.324
	c-0.469-0.2-1-0.365-1.397-0.56c-0.546-0.268-1.02-0.61-1.494-0.807c-0.159-0.066-0.344-0.112-0.533-0.169
	c-0.119-0.035-0.231-0.073-0.38-0.12c-0.214-0.069-0.466-0.128-0.656-0.192c-0.292-0.102-0.55-0.195-0.782-0.255
	c-0.191-0.047-0.427-0.072-0.649-0.108c-0.4-0.066-1.155-0.367-1.695-0.586c-0.288-0.117-0.604-0.264-0.969-0.396
	c-0.297-0.11-0.826-0.292-0.962-0.248c-0.185,0.059-0.158,0.385-0.222,0.546c-0.088,0.224-0.259,0.366-0.352,0.538
	c-0.087,0.157-0.133,0.322-0.21,0.463c-0.268,0.484-0.583,0.942-0.814,1.443c-0.066,0.146-0.085,0.245-0.172,0.385
	c-0.043,0.07-0.109,0.188-0.15,0.255c-0.037,0.063-0.049,0.128-0.09,0.19c-0.033,0.055-0.078,0.115-0.113,0.168
	c-0.101,0.152-0.131,0.337-0.219,0.494c-0.089,0.161-0.139,0.347-0.181,0.502c-0.021,0.078-0.035,0.188-0.064,0.262
	c-0.078,0.201,2.465,15.533,2.164,15.798c-0.191,0.167-0.696,0.341-0.999,0.495c-0.593,0.303-1.15,0.608-1.7,0.895
	c-0.505,0.262-0.551,1.209-1.511,1.617c-0.217,0.092-0.545-1.146-0.714-1.289c-0.178-0.15-0.417-0.654-0.492-0.815
	c-0.504-0.169-0.664-0.562-0.929-0.81c-0.165-0.153-0.371-0.287-0.5-0.406c-0.418-0.387-0.737-0.76-1.233-1.18
	c-0.163-0.138-0.375-0.266-0.515-0.398c-0.119-0.111-0.174-0.213-0.301-0.322c-0.198-0.172-0.497-0.354-0.75-0.542
	c-0.4-0.298-0.679-0.558-1.006-0.837c-0.119-0.1-0.265-0.198-0.372-0.266c-0.177-0.108-0.363-0.182-0.552-0.293
	c-0.135-0.082-0.35-0.188-0.5-0.291c-0.147-0.101-0.31-0.206-0.456-0.305c-0.234-0.153-0.358-0.208-0.614-0.355
	c-0.153-0.088-0.377-0.227-0.541-0.309c-0.187-0.094-0.362-0.226-0.549-0.324c-0.503-0.265-0.951-0.551-1.409-0.825
	c-0.301-0.181-0.823-0.494-0.823-0.494s-0.975-0.581-1.53-0.937c-0.555-0.354-1.118-0.723-1.727-1.129
	c-1.122-0.751-2.304-1.749-3.509-2.513c1.22,1.089,2.581,2.181,3.91,3.326c0.917,0.79,1.991,1.67,2.904,2.491
	c0.298,0.268,0.595,0.6,0.908,0.809c0.096,0.065,0.203,0.097,0.298,0.152c0.628,0.375,1.147,0.85,1.534,1.28
	c0.145,0.161,0.221,0.333,0.354,0.532c0.132,0.195,0.306,0.402,0.384,0.568c0.177,0.381,0.369,0.959,0.14,1.291
	c-0.096,0.139,0.082,0.59-0.208,0.38c-0.257-0.187-0.554-0.806-0.635-1.032c-0.077-0.215-0.326-0.566-0.556-0.785
	c-0.622-0.591-1.564-1.178-1.751-1.652c-0.038-0.094,0.03-0.201-0.008-0.275c-0.069-0.137-0.515-0.474-0.752-0.712
	c-0.507-0.508-1.083-0.938-1.747-1.45c-0.308-0.238-0.559-0.481-0.827-0.686c-0.093-0.072-0.226-0.193-0.298-0.244
	c-0.218-0.153-0.437-0.345-0.648-0.527c-0.22-0.194-0.433-0.366-0.682-0.551c-0.16-0.118-0.262-0.217-0.39-0.322
	c-0.131-0.107-0.295-0.221-0.434-0.324c-0.298-0.227-0.522-0.416-0.929-0.698c-0.676-0.469-1.48-1.13-2.259-1.647
	c-0.279-0.186-0.513-0.365-0.76-0.555c-0.26-0.197-0.522-0.395-0.79-0.584c-0.263-0.186-0.5-0.373-0.737-0.547
	c-0.552-0.402-1.153-0.814-1.731-1.204c-0.657-0.442-1.469-0.868-1.95-1.271c-0.163-0.137-0.294-0.326-0.456-0.506
	c-0.562-0.623-1.246-1.309-1.655-1.879"/>
<path fill="#1D70B7" d="M39.561,93.173l11.934-6.234c3.734-1.95,8.274-3.406,8.274,4.355c0,8.602-4.906,11.861-8.274,13.364
	c-1.464,0.654-4.649,1.807-4.832,1.792v9.812l-7.102,3.709V93.173z M50.763,99.037c1.391-0.727,1.867-2.037,1.867-3.904
	c0-1.83-0.586-2.439-1.867-1.771l-4.1,2.142v5.674L50.763,99.037z"/>
<path fill="#1D70B7" d="M69.944,77.01c5.821-3.041,6.187-3.231,11.129-4.458v5.454c-0.22,0.115-4.283,1.432-8.932,3.86
	c-3.405,1.778-3.991,3.732-3.991,9.7c0,6.003,0.22,7.024,3.442,5.341c2.27-1.186,2.636-3.062,2.636-3.062v-2.745l-1.794,0.937
	v-4.393c1.647-1.74,3.991-3,6.407-4.262c0.769-0.402,1.611-0.805,2.489-1.191v15.962l-5.015,2.619l-2.014-0.742
	c-1.025,1.891-1.61,2.637-4.54,4.348c-7.578,4.436-8.713-1.635-8.713-9.177C61.048,87.038,62.659,80.815,69.944,77.01z"/>
<path fill="#29235C" d="M85.602,74.599h8.926c7.383,0,8.531,7.187,8.531,12.108c0,5.447-2.199,11.911-8.531,11.911h-8.926V74.599z
	 M94.527,96.092c4.33,0,6.104-4.364,6.104-9.417c0-7.022-2.299-9.647-6.104-9.647h-6.498v19.065H94.527z"/>
<path fill="#29235C" d="M105.846,92.482c0-2.625,1.641-4.364,4.365-4.364c0,0,7.283,0.033,7.283,0c0,0,0.035-2.166,0-2.198
	c0-2.002-1.049-2.691-2.689-2.691c-2.363,0-5.217,0.164-8.4,0.395v-1.772c2.33-0.656,5.25-0.952,8.498-0.984
	c2.723-0.033,5.021,1.444,5.021,5.054v12.698h-1.805l-0.625-2.1c-0.064,0-4.299,2.297-7.283,2.297c-2.396,0-4.365-1.542-4.365-4.332
	V92.482z M110.211,96.388c2.625,0,7.283-1.673,7.283-1.673v-4.693l-7.283,0.525c-1.412,0.131-1.938,1.083-1.938,2.133v1.641
	C108.273,95.895,109.096,96.388,110.211,96.388z"/>
<path fill="#29235C" d="M124.32,81.194l4.232,13.618c0.59,1.869,2.197,1.279,2.166,1.279l4.986-14.897h2.725l-7.68,22.937
	l-2.459,3.349h-1.512l3.086-8.861c-0.689,0-2.855-0.065-3.938-3.608l-4.268-13.815H124.32z"/>
<path fill="#F29100" d="M145.229,81.272h4.598v9.764c0,2.227,0.047,3.578,2.299,3.578c2.109,0,2.156-1.445,2.156-3.578v-9.764h4.621
	v9.764c0,7.654-3.91,7.701-6.777,7.701c-3.225,0-6.896,0.19-6.896-7.701V81.272z"/>
<path fill="#F29100" d="M160.75,81.272h4.359v6.825h0.949l3.531-6.825h5.283l-4.762,8.721l4.762,8.625h-5.283l-3.531-6.635h-0.924
	v6.635h-4.385V81.272z"/>
<path opacity="0.75" fill="#1D1D1B" d="M9.997,159.833c-0.066-0.085-0.152-0.179-0.215-0.249c-0.149-0.172-0.248-0.314-0.359-0.475
	c-0.122-0.179-0.144-0.331-0.257-0.507c-0.104-0.165-0.165-0.328-0.272-0.499c-0.092-0.146-0.232-0.271-0.299-0.406
	c-0.062-0.123-0.042-0.242-0.11-0.377c-0.049-0.098-0.169-0.2-0.214-0.298c-0.062-0.134-0.038-0.277-0.091-0.438
	c-0.05-0.148-0.144-0.313-0.167-0.449c-0.05-0.289-0.026-0.57-0.068-0.857c-0.015-0.099-0.076-0.208-0.091-0.31
	c-0.015-0.104,0.031-0.192,0.023-0.292c-0.008-0.112-0.037-0.231-0.038-0.345c0-0.116,0.035-0.225,0.038-0.343
	c0.002-0.115-0.066-0.27-0.077-0.387c-0.01-0.123-0.007-0.233-0.013-0.357c-0.007-0.127-0.048-0.258-0.034-0.365
	c0.015-0.116,0.071-0.223,0.08-0.347c0.01-0.123,0.02-0.233,0.065-0.341c0.094-0.224,0.081-0.473,0.145-0.684
	c0.037-0.117,0.11-0.21,0.148-0.305c0.195-0.483,0.829-0.968,1.177-1.441c0.272-0.371,0.484-0.809,1.122-1.134
	c0.626-0.32,1.32-0.561,2.05-0.692c0.336-0.059,0.715-0.09,1.083-0.145c0.339-0.051,0.755-0.076,1.071-0.19
	c0.382-0.138,0.643-0.377,1.042-0.533c0.4-0.155,0.737-0.366,0.979-0.562c0.173-0.14,0.32-0.32,0.477-0.487
	c0.16-0.17,0.292-0.334,0.403-0.503c0.136-0.207,0.228-0.492,0.357-0.752c0.122-0.242,0.322-0.471,0.424-0.726
	c0.101-0.251,0.249-0.494,0.401-0.739c0.147-0.234,0.371-0.465,0.387-0.732c0.007-0.121-0.117-0.328-0.174-0.472
	c-0.183-0.466-0.503-0.972-0.613-1.42c-0.078-0.319,0.106-0.561,0.415-0.821c0.56-0.478,1.09-0.938,1.789-1.398
	c0.414-0.274,0.765-0.58,1.288-0.812c0.627-0.277,1.154-0.669,1.821-0.981c0.302-0.141,0.688-0.24,0.974-0.396
	c0.205-0.111,0.343-0.27,0.477-0.421c0.215-0.24,0.273-0.53,0.481-0.78c0.377-0.456,1.091-0.79,1.875-1.162
	c0.294-0.141,0.633-0.229,0.918-0.342c0.24-0.094,0.443-0.209,0.705-0.258c0.17-0.033,0.408-0.02,0.625-0.039
	c0.648-0.059,1.229-0.043,1.917,0.039c0.445,0.053,0.876,0.068,1.301,0.1c0.906,0.068,1.648,0.113,2.594,0.306
	c0.227,0.046,0.441,0.103,0.66,0.146c0.235,0.048,0.431,0.095,0.66,0.151c0.168,0.041,0.342,0.064,0.523,0.109
	c0.505,0.125,0.981,0.179,1.497,0.28c0.315,0.062,0.691,0.176,1.038,0.259c0.688,0.166,1.277,0.354,2,0.634
	c0.317,0.124,0.627,0.118,0.98,0.255c0.171,0.067,0.433,0.302,0.674,0.377c0.626,0.197,1.35,0.326,1.971,0.472
	c0.446,0.104,0.903,0.26,1.339,0.359c0.788,0.181,1.467,0.292,2.253,0.505c0.325,0.121,0.687,0.218,1.021,0.357
	c0.31,0.131,0.599,0.264,0.903,0.392c0.151,0.063,0.292,0.148,0.442,0.208c0.203,0.079,0.406,0.093,0.596,0.178
	c0.52,0.02,1.024-0.016,1.608,0.224c0.25-0.198,0.154-0.603,0.643-0.66c0.409,0.201,0.154,0.384,0.314,0.579
	c0.636-0.227,1.393-0.495,1.792-0.891c0.252-0.249,0.434-0.536,0.78-0.844c0.201-0.18,0.647-0.907,0.846-0.803
	c0.208,0.11,0.207,1.211,0.208,1.334c0,0.176-0.014,0.334-0.071,0.443c-0.192,0.369-0.506,0.799-1.005,1.164
	c-0.499,0.364-1.085,0.702-1.794,0.941c0.423,0.197,1.069,0.543,1.532,0.898c0.133,0.103,0.284,0.207,0.439,0.303
	c0.305,0.187,0.641,0.277,0.972,0.428c0.259,0.12,0.554,0.288,0.789,0.463c0.116,0.088,0.192,0.231,0.328,0.318
	c0.137,0.086,0.351,0.117,0.496,0.204c0.147,0.089,0.25,0.25,0.433,0.365c0.151,0.095,0.348,0.152,0.449,0.229
	c0.16,0.121,0.177,0.262,0.318,0.389c0.261,0.233,0.671,0.43,0.882,0.68c0.135,0.16,0.05,0.199,0.22,0.361
	c0.287,0.115,0.499,0.232,0.649,0.442c0.03,0.042,0.007,0.093,0.061,0.147c0.069,0.066,0.195,0.122,0.252,0.176
	c0.17,0.166,0.272,0.326,0.392,0.454c0.236,0.097,0.42,0.189,0.617,0.331c0.171,0.121,0.255,0.277,0.43,0.416
	c0.115,0.092,0.296,0.171,0.401,0.254c0.159,0.127,0.215,0.278,0.332,0.391c0.18,0.086,0.237,0.082,0.359,0.174
	c0.146,0.109,0.065,0.209,0.176,0.292c0.076,0.056,0.266,0.093,0.39,0.157c0.121,0.061,0.218,0.179,0.37,0.27
	c0.241,0.146,0.459,0.184,0.563,0.375c0.199,0.072,0.281,0.086,0.435,0.185c0.127,0.083,0.128,0.161,0.233,0.239
	c0.2,0.146,0.558,0.266,0.582,0.44c0.265,0.077,0.601,0.255,0.668,0.423c0.304,0.098,0.56,0.287,0.842,0.461
	c0.088,0.054,0.136,0.125,0.191,0.157c0.207,0.119,0.6,0.196,0.646,0.409c0.269,0.049,0.379,0.207,0.573,0.345
	c0.292,0.208,0.737,0.397,0.887,0.616c0.167,0.085,0.271,0.107,0.403,0.201c0.105,0.074,0.134,0.146,0.227,0.215
	c0.171,0.129,0.445,0.229,0.47,0.371c0.285,0.149,0.491,0.338,0.672,0.498c0.085,0.075,0.112,0.149,0.194,0.231
	c0.054,0.054,0.142,0.106,0.191,0.157c0.079,0.08,0.066,0.174,0.146,0.256c0.061,0.062,0.182,0.11,0.229,0.164
	c0.073,0.08,0.083,0.186,0.152,0.283c0.088,0.123,0.22,0.268,0.28,0.387c0.061,0.125,0.042,0.318,0.079,0.521
	c0.106,0.588-0.05,1.283-0.641,1.727c-0.445,0.336-1.315,0.668-1.83,0.885c-0.195,0.082-0.806,0.063-1.068,0.011
	c-0.393-0.077-0.882-0.369-0.529-0.528c-0.13-0.359-0.702-0.902-0.749-1.238c-0.007-0.055,0.208-0.218,0.328-0.244
	c0.187-0.043,0.453,0.013,0.65,0.049c0.128,0.023,0.522,0.17,0.66,0.146c0.229-0.037,0.32-0.454,0.307-0.564
	c-0.061-0.518-1.287-1.397-2.436-2.066c-0.58-0.338-1.278-0.669-1.948-1.018c-0.689-0.357-1.306-0.789-1.993-1.172
	c-1.327-0.736-2.703-1.459-3.936-2.167c-0.338-0.194-0.63-0.407-0.935-0.593c-0.863-0.521-1.744-1.074-2.699-1.601
	c-1.031-0.567-2.208-0.817-3.224-1.282c-0.353-0.161-0.676-0.328-1.026-0.469c-0.332-0.135-0.697-0.257-0.991-0.411
	c-0.297-0.156-0.665-0.419-0.983-0.567c-1.489-0.701-2.657-0.126-3.854-0.019c-0.001,0.423,0.617,1.366,0.617,1.366
	s0.197,0.375,0.155,0.532c-0.024,0.093-0.056,0.21-0.099,0.323c-0.103,0.266-0.31,0.574-0.646,0.797
	c-0.474,0.313-0.934,0.662-1.318,1.033c-0.072,0.07-0.163,0.172-0.235,0.243c-0.067,0.068-0.092,0.129-0.167,0.196
	c-0.099,0.09-0.238,0.195-0.328,0.286c-0.172,0.177-0.359,0.238-0.317,0.468c0.017,0.094,0.034,0.141,0.043,0.208
	c0.025,0.21,0.271,0.563,0.495,0.767c0.067,0.061,0.141,0.143,0.217,0.203c0.702,0.555,1.208,1.111,1.95,1.668
	c0.263,0.198,0.636,0.385,0.93,0.596c0.843,0.604,1.685,1.138,2.639,1.582c0.704,0.326,1.243,0.628,1.932,0.898
	c0.517,0.201,1.215,0.307,1.754,0.477c0.188,0.061,0.378,0.117,0.596,0.197c0.271,0.1,0.634,0.232,0.947,0.34
	c0.293,0.102,0.603,0.192,0.861,0.256c0.39,0.098,0.848,0.137,1.256,0.242c0.442,0.115,1.028,0.34,1.59,0.537
	c0.523,0.182,1.13,0.352,1.576,0.545c0.859,0.376,1.583,0.766,2.247,1.297c0.118,0.096,0.253,0.203,0.368,0.306
	c0.117,0.105,0.235,0.21,0.337,0.304c0.205,0.193,0.417,0.479,0.689,0.726c0.293,0.267,0.478,0.707,0.4,0.959
	c0.2,0.519,0.063,0.749,0.241,1.201c0.106,0.268,0.188,0.465,0.457,0.761c0.089,0.098,0.243,0.24,0.346,0.316
	c0.15,0.105,0.316,0.178,0.437,0.252c0.5,0.31,0.898,0.738,1.157,1.038c0.464,0.545,0.342,0.976-0.357,1.329
	c-0.108,0.055-0.197,0.115-0.325,0.176c-0.091,0.041-0.194,0.079-0.275,0.131c-0.111,0.072-0.25,0.117-0.369,0.189
	c-0.11,0.066-0.224,0.119-0.346,0.186c-0.113,0.059-0.245,0.118-0.376,0.183c-0.134,0.066-0.22,0.136-0.332,0.212
	c-0.073,0.051-0.134,0.121-0.228,0.176c-0.489,0.283-0.9,0.744-1.625,0.652c-0.222-0.027-0.553-0.155-0.806-0.276
	c-0.316-0.149-0.605-0.399-0.967-0.576c-0.155-0.075-0.277-0.142-0.431-0.212c-0.172-0.078-0.344-0.151-0.519-0.246
	c-0.328-0.173-0.65-0.316-0.948-0.508c-0.941-0.605-1.838-1.137-2.832-1.686c-0.436-0.242-0.869-0.457-1.275-0.699
	c-0.839-0.502-1.625-1.047-2.49-1.505c-0.209-0.11-0.467-0.217-0.718-0.347c-0.222-0.112-0.487-0.228-0.711-0.324
	c-0.469-0.2-1-0.365-1.397-0.56c-0.546-0.268-1.02-0.61-1.494-0.807c-0.159-0.066-0.344-0.112-0.533-0.169
	c-0.119-0.035-0.231-0.073-0.38-0.12c-0.214-0.069-0.466-0.128-0.656-0.192c-0.292-0.102-0.55-0.195-0.782-0.255
	c-0.191-0.047-0.427-0.072-0.649-0.108c-0.4-0.066-1.155-0.367-1.695-0.586c-0.288-0.117-0.604-0.264-0.969-0.396
	c-0.297-0.11-0.826-0.292-0.962-0.248c-0.185,0.059-0.158,0.385-0.222,0.546c-0.088,0.224-0.259,0.366-0.352,0.538
	c-0.087,0.157-0.133,0.322-0.21,0.463c-0.268,0.484-0.583,0.942-0.814,1.443c-0.066,0.146-0.085,0.245-0.172,0.385
	c-0.043,0.07-0.109,0.188-0.15,0.255c-0.037,0.063-0.049,0.128-0.09,0.19c-0.033,0.055-0.078,0.115-0.113,0.168
	c-0.101,0.152-0.131,0.337-0.219,0.494c-0.089,0.161-0.139,0.347-0.181,0.502c-0.021,0.078-0.035,0.188-0.064,0.262
	c-0.078,0.201,2.465,15.533,2.164,15.798c-0.191,0.167-0.696,0.341-0.999,0.495c-0.593,0.303-1.15,0.608-1.7,0.895
	c-0.505,0.262-0.551,1.209-1.511,1.617c-0.217,0.092-0.545-1.146-0.714-1.289c-0.178-0.15-0.417-0.654-0.492-0.815
	c-0.504-0.169-0.664-0.562-0.929-0.81c-0.165-0.153-0.371-0.287-0.5-0.406c-0.418-0.387-0.737-0.76-1.233-1.18
	c-0.163-0.138-0.375-0.266-0.515-0.398c-0.119-0.111-0.174-0.213-0.301-0.322c-0.198-0.172-0.497-0.354-0.75-0.542
	c-0.4-0.298-0.679-0.558-1.006-0.837c-0.119-0.1-0.265-0.198-0.372-0.266c-0.177-0.108-0.363-0.182-0.552-0.293
	c-0.135-0.082-0.35-0.188-0.5-0.291c-0.147-0.101-0.31-0.206-0.456-0.305c-0.234-0.153-0.358-0.208-0.614-0.355
	c-0.153-0.088-0.377-0.227-0.541-0.309c-0.187-0.094-0.362-0.226-0.549-0.324c-0.503-0.265-0.951-0.551-1.409-0.825
	c-0.301-0.181-0.823-0.494-0.823-0.494s-0.975-0.581-1.53-0.937c-0.555-0.354-1.118-0.723-1.727-1.129
	c-1.122-0.751-2.304-1.749-3.509-2.513c1.22,1.089,2.581,2.181,3.91,3.326c0.917,0.79,1.991,1.67,2.904,2.491
	c0.298,0.268,0.595,0.6,0.908,0.809c0.096,0.065,0.203,0.097,0.298,0.152c0.628,0.375,1.147,0.85,1.534,1.28
	c0.145,0.161,0.221,0.333,0.354,0.532c0.132,0.195,0.306,0.402,0.384,0.568c0.177,0.381,0.369,0.959,0.14,1.291
	c-0.096,0.139,0.082,0.59-0.208,0.38c-0.257-0.187-0.554-0.806-0.635-1.032c-0.077-0.215-0.326-0.566-0.556-0.785
	c-0.622-0.591-1.564-1.178-1.751-1.652c-0.038-0.094,0.03-0.201-0.008-0.275c-0.069-0.137-0.515-0.474-0.752-0.712
	c-0.507-0.508-1.083-0.938-1.747-1.45c-0.308-0.238-0.559-0.481-0.827-0.686c-0.093-0.072-0.226-0.193-0.298-0.244
	c-0.218-0.153-0.437-0.345-0.648-0.527c-0.22-0.194-0.433-0.366-0.682-0.551c-0.16-0.118-0.262-0.217-0.39-0.322
	c-0.131-0.107-0.295-0.221-0.434-0.324c-0.298-0.227-0.522-0.416-0.929-0.698c-0.676-0.469-1.48-1.13-2.259-1.647
	c-0.279-0.186-0.513-0.365-0.76-0.555c-0.26-0.197-0.522-0.395-0.79-0.584c-0.263-0.186-0.5-0.373-0.737-0.547
	c-0.552-0.402-1.153-0.814-1.731-1.204c-0.657-0.442-1.469-0.868-1.95-1.271c-0.163-0.137-0.294-0.326-0.456-0.506
	c-0.562-0.623-1.246-1.309-1.655-1.879"/>
<path fill="#FFFFFF" d="M39.561,155.424l11.934-6.234c3.734-1.95,8.274-3.406,8.274,4.355c0,8.602-4.906,11.86-8.274,13.363
	c-1.464,0.654-4.649,1.807-4.832,1.792v9.812l-7.102,3.709V155.424z M50.763,161.287c1.391-0.727,1.867-2.037,1.867-3.904
	c0-1.83-0.586-2.439-1.867-1.771l-4.1,2.142v5.674L50.763,161.287z"/>
<path fill="#FFFFFF" d="M69.944,139.26c5.821-3.04,6.187-3.23,11.129-4.458v5.454c-0.22,0.115-4.283,1.432-8.932,3.86
	c-3.405,1.778-3.991,3.732-3.991,9.7c0,6.003,0.22,7.023,3.442,5.341c2.27-1.186,2.636-3.062,2.636-3.062v-2.745l-1.794,0.937
	v-4.393c1.647-1.739,3.991-3,6.407-4.262c0.769-0.402,1.611-0.805,2.489-1.19v15.962l-5.015,2.619l-2.014-0.742
	c-1.025,1.891-1.61,2.637-4.54,4.348c-7.578,4.436-8.713-1.635-8.713-9.177C61.048,149.288,62.659,143.065,69.944,139.26z"/>
<path fill="#FFFFFF" d="M142.289,164.6h0.803l-2.68,4.257h2.59v-1.887l0.336-0.685h0.338v2.571h0.82v0.539l-0.82,0.172v1.687h-0.674
	v-1.687h-3.328l-0.311-0.337L142.289,164.6z"/>
<path fill="#FFFFFF" d="M144.859,166.588l0.902-0.164l0.166-1.35h0.51v1.35h1.412v0.674h-1.412v2.443
	c0,0.793,0.209,0.976,0.52,1.049c0,0,0.748,0.191,0.811,0.191v0.482h-0.801c-0.703,0-1.205-0.438-1.205-1.723v-2.443h-0.902V166.588
	z"/>
<path fill="#FFFFFF" d="M148.67,164.125h0.674v2.873c0.557-0.32,1.049-0.648,1.787-0.648c0.967,0,1.494,0.748,1.494,1.551v3.372
	h-0.674V167.9c0-0.603-0.346-0.876-0.82-0.876c-0.73,0-1.084,0.183-1.787,0.52v3.729h-0.674V164.125z"/>
<path fill="#FFFFFF" d="M155.715,170.59c0.674,0.164,1.688,0.446,1.695-0.822V164.6h0.674v5.168c0,0.43-0.016,1.049-0.475,1.342
	c-0.482,0.31-1.457,0.283-1.932-0.028L155.715,170.59z"/>
<path fill="#FFFFFF" d="M159.361,164.6h0.672v3.756c0,2.343,0.73,2.288,1.797,2.288c0.902,0,1.742-0.019,1.742-2.288V164.6h0.684
	v3.756c0,2.944-1.322,2.963-2.426,2.963c-1.238,0-2.469,0.074-2.469-2.963V164.6z"/>
<path fill="#FFFFFF" d="M165.531,164.6h0.674v5.524c0,0.483,0.301,0.474,0.564,0.474h2.791v0.675h-2.791
	c-0.602,0-1.238-0.119-1.238-1.148V164.6z"/>
<path fill="#FFFFFF" d="M170.205,164.6l1.725,3.5l1.904-3.5h0.738l-2.307,4.303v2.37h-0.674v-2.37l-2.123-4.303H170.205z"/>
<path fill="#FFFFFF" d="M151.691,174.373c0.994-0.173,1.912-0.279,3.324-0.279c1.652,0,2.371,1.133,2.371,2.478
	c0,1.794-2.293,3.649-3.02,4.228h3.02v1.412h-5.613v-1.346c1.023-0.689,4.076-3.018,4.076-4.285c0-0.727-0.379-1.064-1.32-1.064
	h-2.838V174.373z"/>
<path fill="#FFFFFF" d="M158.371,176.215c0-1.313,0.795-2.012,2.014-2.012h1.795c1.473,0,1.936,0.904,1.936,1.953v4.102
	c0,1.301-0.732,1.953-1.943,1.953h-1.793c-1.229,0-2.008-0.641-2.008-1.953V176.215z M160.729,180.799h1.059
	c0.514,0,0.795-0.191,0.795-0.781v-3.621c0-0.504-0.219-0.782-0.746-0.782h-1.15c-0.656,0-0.783,0.468-0.783,0.782v3.615
	C159.902,180.678,160.359,180.799,160.729,180.799z"/>
<path fill="#FFFFFF" d="M165.012,175.108l1.549-0.905h1.52v8.008h-1.531v-6.487l-1.537,0.386V175.108z"/>
<path fill="#FFFFFF" d="M168.99,174.203h5.152l0.416,0.705l-2.682,7.303h-1.672l2.461-6.597h-3.676V174.203z"/>
<path fill="#FFFFFF" d="M85.602,136.849h8.926c7.383,0,8.531,7.187,8.531,12.108c0,5.447-2.199,11.911-8.531,11.911h-8.926V136.849z
	 M94.527,158.342c4.33,0,6.104-4.363,6.104-9.418c0-7.021-2.299-9.646-6.104-9.646h-6.498v19.064H94.527z"/>
<path fill="#FFFFFF" d="M105.846,154.732c0-2.625,1.641-4.364,4.365-4.364c0,0,7.283,0.032,7.283,0c0,0,0.035-2.165,0-2.198
	c0-2.002-1.049-2.691-2.689-2.691c-2.363,0-5.217,0.164-8.4,0.395v-1.772c2.33-0.656,5.25-0.952,8.498-0.984
	c2.723-0.032,5.021,1.444,5.021,5.054v12.698h-1.805l-0.625-2.1c-0.064,0-4.299,2.297-7.283,2.297c-2.396,0-4.365-1.542-4.365-4.331
	V154.732z M110.211,158.638c2.625,0,7.283-1.673,7.283-1.673v-4.693l-7.283,0.525c-1.412,0.131-1.938,1.082-1.938,2.133v1.641
	C108.273,158.145,109.096,158.638,110.211,158.638z"/>
<path fill="#FFFFFF" d="M124.32,143.444l4.232,13.618c0.59,1.869,2.197,1.279,2.166,1.279l4.986-14.897h2.725l-7.68,22.937
	l-2.459,3.349h-1.512l3.086-8.861c-0.689,0-2.855-0.065-3.938-3.608l-4.268-13.815H124.32z"/>
<path fill="#F29100" d="M145.229,143.521h4.598v9.764c0,2.228,0.047,3.578,2.299,3.578c2.109,0,2.156-1.445,2.156-3.578v-9.764
	h4.621v9.764c0,7.654-3.91,7.701-6.777,7.701c-3.225,0-6.896,0.19-6.896-7.701V143.521z"/>
<path fill="#F29100" d="M160.75,143.521h4.359v6.825h0.949l3.531-6.825h5.283l-4.762,8.721l4.762,8.626h-5.283l-3.531-6.635h-0.924
	v6.635h-4.385V143.521z"/>
</svg>
